<svg width="512" height="512" viewBox="0 0 512 512" fill="none" xmlns="http://www.w3.org/2000/svg">
<rect x="512" width="512" height="512" rx="50" transform="rotate(90 512 0)" fill="white"/>
<path d="M351.45 237.15L349.825 256.65C344.842 256.217 339.425 256 333.575 256C327.942 256 323.175 256.108 319.275 256.325C316.242 280.158 314.292 306.05 313.425 334H290.675C289.375 328.367 288.725 320.892 288.725 311.575C288.725 302.258 288.942 294.242 289.375 287.525C290.025 280.592 290.783 273.767 291.65 267.05C292.517 260.333 292.95 256.433 292.95 255.35C289.917 255.133 282.767 255.025 271.5 255.025C260.233 255.025 252.433 255.242 248.1 255.675C222.967 289.475 199.783 315.15 178.55 332.7C157.317 350.033 136.083 358.7 114.85 358.7C104.45 358.7 95.7833 355.558 88.85 349.275C81.7 342.992 78.125 334.65 78.125 324.25C78.125 304.533 93.075 286.55 122.975 270.3C153.092 254.05 191.983 243.108 239.65 237.475C245.283 228.808 255.792 215.483 271.175 197.5C286.558 179.3 301.725 163.483 316.675 150.05C323.175 134.883 328.267 124.375 331.95 118.525C335.85 112.458 339.642 109.425 343.325 109.425C347.008 109.425 350.042 110.833 352.425 113.65C354.808 116.467 356 120.15 356 124.7C356 129.033 353.508 135.533 348.525 144.2C343.758 152.65 338.775 165.867 333.575 183.85C328.375 201.617 324.8 218.408 322.85 234.225C334.117 234.225 343.65 235.2 351.45 237.15ZM185.7 305.075C203.683 287.958 217.225 271.708 226.325 256.325C189.925 258.492 161.758 265.317 141.825 276.8C122.108 288.283 112.25 300.525 112.25 313.525C112.25 319.158 114.092 323.6 117.775 326.85C121.675 330.1 126.767 331.725 133.05 331.725C149.95 331.725 167.5 322.842 185.7 305.075ZM296.85 234.225C298.367 226.858 300.317 217.65 302.7 206.6C305.3 195.333 306.817 188.725 307.25 186.775C296.85 196.742 289.592 204.108 285.475 208.875C281.358 213.425 274.1 222.308 263.7 235.525C267.383 235.308 271.825 235.2 277.025 235.2C282.442 234.983 286.883 234.767 290.35 234.55C293.817 234.333 295.983 234.225 296.85 234.225Z" fill="#000814"/>
<path d="M379.837 258.3L383 239.803L362 237.651L341 235.5L349 256.618L379.837 258.3Z" fill="#000814"/>
<path d="M399.5 252.366L370.881 278.541C368.903 280.35 365.837 280.217 364.042 278.245L359.68 273.5C357.866 271.527 357.999 268.469 359.976 266.679L380.262 248.126L361.656 227.888C359.841 225.915 359.974 222.856 361.951 221.067L366.688 216.677C368.666 214.867 371.733 215 373.527 216.973L399.776 245.524C401.611 247.498 401.478 250.556 399.5 252.366V252.366Z" fill="#000814"/>
</svg>
