<svg width="23" height="23" viewBox="0 0 23 23" fill="none" xmlns="http://www.w3.org/2000/svg">
<path fill-rule="evenodd" clip-rule="evenodd" d="M13.8 4.84211V2.42105H9.2V4.84211H13.8ZM2.3 7.26316V20.5789H20.7V7.26316H2.3ZM20.7 4.84211C21.9765 4.84211 23 5.91947 23 7.26316V20.5789C23 21.9226 21.9765 23 20.7 23H2.3C1.0235 23 0 21.9226 0 20.5789L0.0115 7.26316C0.0115 5.91947 1.0235 4.84211 2.3 4.84211H6.9V2.42105C6.9 1.07737 7.9235 0 9.2 0H13.8C15.0765 0 16.1 1.07737 16.1 2.42105V4.84211H20.7Z" fill="#D90429"/>
</svg>
