<svg width="23" height="24" viewBox="0 0 23 24" fill="none" xmlns="http://www.w3.org/2000/svg">
<path d="M4.92458 1.62255C5.04454 1.49916 5.11194 1.33181 5.11194 1.15731C5.11194 0.982809 5.04454 0.815457 4.92458 0.692068C4.80462 0.568678 4.64191 0.499359 4.47226 0.499359C4.30261 0.499359 4.13991 0.568678 4.01994 0.692068L1.9168 2.85662L1.09138 2.00631C1.03198 1.94521 0.961464 1.89675 0.883856 1.86368C0.806247 1.83062 0.723066 1.8136 0.639063 1.8136C0.55506 1.8136 0.471879 1.83062 0.394271 1.86368C0.316662 1.89675 0.246145 1.94521 0.186746 2.00631C0.127346 2.0674 0.0802285 2.13993 0.0480819 2.21976C0.0159353 2.29959 -0.000610352 2.38514 -0.000610352 2.47155C-0.000610351 2.55795 0.0159353 2.64351 0.0480819 2.72333C0.0802285 2.80316 0.127346 2.87569 0.186746 2.93679L1.46448 4.25103C1.52382 4.31222 1.59432 4.36077 1.67194 4.3939C1.74956 4.42703 1.83276 4.44408 1.9168 4.44408C2.00083 4.44408 2.08404 4.42703 2.16165 4.3939C2.23927 4.36077 2.30977 4.31222 2.36911 4.25103L4.92458 1.62255ZM8.62489 1.81443C8.37074 1.81443 8.12699 1.91828 7.94727 2.10313C7.76756 2.28798 7.66659 2.53869 7.66659 2.80011C7.66659 3.06152 7.76756 3.31224 7.94727 3.49709C8.12699 3.68194 8.37074 3.78578 8.62489 3.78578H19.4856C19.7398 3.78578 19.9835 3.68194 20.1632 3.49709C20.343 3.31224 20.4439 3.06152 20.4439 2.80011C20.4439 2.53869 20.343 2.28798 20.1632 2.10313C19.9835 1.91828 19.7398 1.81443 19.4856 1.81443H8.62489ZM8.62489 8.38562C8.37074 8.38562 8.12699 8.48947 7.94727 8.67432C7.76756 8.85917 7.66659 9.10988 7.66659 9.3713C7.66659 9.63272 7.76756 9.88343 7.94727 10.0683C8.12699 10.2531 8.37074 10.357 8.62489 10.357H19.4856C19.7398 10.357 19.9835 10.2531 20.1632 10.0683C20.343 9.88343 20.4439 9.63272 20.4439 9.3713C20.4439 9.10988 20.343 8.85917 20.1632 8.67432C19.9835 8.48947 19.7398 8.38562 19.4856 8.38562H8.62489ZM10.2502 16.9282C10.3093 16.2524 10.4612 15.5887 10.7012 14.9568H8.62489C8.37074 14.9568 8.12699 15.0607 7.94727 15.2455C7.76756 15.4304 7.66659 15.6811 7.66659 15.9425C7.66659 16.2039 7.76756 16.4546 7.94727 16.6395C8.12699 16.8243 8.37074 16.9282 8.62489 16.9282H10.2502ZM4.92458 8.85086C4.98398 8.78976 5.0311 8.71723 5.06324 8.63741C5.09539 8.55758 5.11194 8.47202 5.11194 8.38562C5.11194 8.29922 5.09539 8.21366 5.06324 8.13383C5.0311 8.05401 4.98398 7.98147 4.92458 7.92038C4.86518 7.85928 4.79466 7.81082 4.71705 7.77775C4.63945 7.74469 4.55627 7.72767 4.47226 7.72767C4.38826 7.72767 4.30508 7.74469 4.22747 7.77775C4.14986 7.81082 4.07934 7.85928 4.01994 7.92038L1.9168 10.0849L1.09138 9.23462C0.971419 9.11123 0.808715 9.04191 0.639063 9.04191C0.469411 9.04191 0.306708 9.11123 0.186746 9.23462C0.0667835 9.35801 -0.000610352 9.52536 -0.000610352 9.69986C-0.000610352 9.87436 0.0667835 10.0417 0.186746 10.1651L1.46448 11.4793C1.52382 11.5405 1.59432 11.5891 1.67194 11.6222C1.74956 11.6553 1.83276 11.6724 1.9168 11.6724C2.00083 11.6724 2.08404 11.6553 2.16165 11.6222C2.23927 11.5891 2.30977 11.5405 2.36911 11.4793L4.92458 8.85086ZM4.92458 14.4916C4.98407 14.5526 5.03128 14.6251 5.06349 14.705C5.09569 14.7848 5.11227 14.8704 5.11227 14.9568C5.11227 15.0432 5.09569 15.1288 5.06349 15.2087C5.03128 15.2885 4.98407 15.361 4.92458 15.4221L2.36911 18.0505C2.30977 18.1117 2.23927 18.1603 2.16165 18.1934C2.08404 18.2265 2.00083 18.2436 1.9168 18.2436C1.83276 18.2436 1.74956 18.2265 1.67194 18.1934C1.59432 18.1603 1.52382 18.1117 1.46448 18.0505L0.186746 16.7363C0.0667835 16.6129 -0.000610352 16.4455 -0.000610352 16.271C-0.000610352 16.0965 0.0667835 15.9292 0.186746 15.8058C0.306708 15.6824 0.469411 15.6131 0.639063 15.6131C0.808715 15.6131 0.971419 15.6824 1.09138 15.8058L1.9168 16.6561L4.01994 14.4916C4.07929 14.4304 4.14979 14.3818 4.22741 14.3487C4.30502 14.3156 4.38823 14.2985 4.47226 14.2985C4.5563 14.2985 4.6395 14.3156 4.71712 14.3487C4.79473 14.3818 4.86523 14.4304 4.92458 14.4916ZM22.9994 17.5853C22.9994 19.1538 22.3936 20.6581 21.3153 21.7672C20.237 22.8763 18.7745 23.4994 17.2496 23.4994C15.7247 23.4994 14.2622 22.8763 13.1839 21.7672C12.1056 20.6581 11.4998 19.1538 11.4998 17.5853C11.4998 16.0168 12.1056 14.5125 13.1839 13.4034C14.2622 12.2943 15.7247 11.6712 17.2496 11.6712C18.7745 11.6712 20.237 12.2943 21.3153 13.4034C22.3936 14.5125 22.9994 16.0168 22.9994 17.5853V17.5853ZM17.8885 14.9568C17.8885 14.7825 17.8211 14.6154 17.7013 14.4922C17.5815 14.3689 17.419 14.2997 17.2496 14.2997C17.0802 14.2997 16.9177 14.3689 16.7978 14.4922C16.678 14.6154 16.6107 14.7825 16.6107 14.9568V16.9282H14.6941C14.5247 16.9282 14.3622 16.9974 14.2424 17.1206C14.1226 17.2439 14.0553 17.411 14.0553 17.5853C14.0553 17.7596 14.1226 17.9267 14.2424 18.0499C14.3622 18.1732 14.5247 18.2424 14.6941 18.2424H16.6107V20.2138C16.6107 20.388 16.678 20.5552 16.7978 20.6784C16.9177 20.8017 17.0802 20.8709 17.2496 20.8709C17.419 20.8709 17.5815 20.8017 17.7013 20.6784C17.8211 20.5552 17.8885 20.388 17.8885 20.2138V18.2424H19.8051C19.9745 18.2424 20.137 18.1732 20.2568 18.0499C20.3766 17.9267 20.4439 17.7596 20.4439 17.5853C20.4439 17.411 20.3766 17.2439 20.2568 17.1206C20.137 16.9974 19.9745 16.9282 19.8051 16.9282H17.8885V14.9568Z" fill="#D90429"/>
</svg>
