<svg width="23" height="30" viewBox="0 0 23 30" fill="none" xmlns="http://www.w3.org/2000/svg">
<path d="M5.22729 16.7273H13.5909V18.8182H5.22729V16.7273Z" fill="#D90429"/>
<path d="M5.22729 11.5H17.7727V13.5909H5.22729V11.5Z" fill="#D90429"/>
<path d="M5.22729 21.9546H10.4546V24.0455H5.22729V21.9546Z" fill="#D90429"/>
<path d="M20.9091 3.13636H17.7727V2.09091C17.7727 1.53637 17.5524 1.00453 17.1603 0.612413C16.7682 0.220292 16.2364 0 15.6818 0H7.31818C6.76364 0 6.23181 0.220292 5.83969 0.612413C5.44756 1.00453 5.22727 1.53637 5.22727 2.09091V3.13636H2.09091C1.53637 3.13636 1.00453 3.35666 0.612413 3.74878C0.220291 4.1409 0 4.67273 0 5.22727V27.1818C0 27.7364 0.220291 28.2682 0.612413 28.6603C1.00453 29.0524 1.53637 29.2727 2.09091 29.2727H20.9091C21.4636 29.2727 21.9955 29.0524 22.3876 28.6603C22.7797 28.2682 23 27.7364 23 27.1818V5.22727C23 4.67273 22.7797 4.1409 22.3876 3.74878C21.9955 3.35666 21.4636 3.13636 20.9091 3.13636V3.13636ZM7.31818 2.09091H15.6818V6.27273H7.31818V2.09091ZM20.9091 27.1818H2.09091V5.22727H5.22727V8.36364H17.7727V5.22727H20.9091V27.1818Z" fill="#D90429"/>
</svg>
